<svg xmlns="http://www.w3.org/2000/svg" width="424.099" height="421.469" viewBox="0 0 424.099 421.46909" enable-background="new 0 0 512 512"><path d="M57.06 406.13S0 328.76 0 210.097C0 91.43 57.066 15.106 57.066 15.106s94.32-4.835 202.302 50.577c107.986 55.412 164.73 143.89 164.73 143.89s-63.79 96.22-170.385 150.066C147.12 413.482 57.06 406.13 57.06 406.13z" fill="#005580"/><path d="M69.467 289.198h40.245l16.653-106.25.236-1.507c.294-.598.456-1 .49-1.204 2.365-6.237 6.528-9.357 12.492-9.357h19.07c5.34 1.407 7.582 4.83 6.73 10.26l-16.937 108.058h40.247l16.938-108.06c.725-4.623 3.312-7.744 7.772-9.352 1.692-.605 3.04-.907 4.043-.907h17.717c7.403 0 10.48 4.02 9.22 12.07l-16.656 106.248h40.247l18.926-120.74c1.358-8.67.665-15.835-2.07-21.485-5.515-11.092-15.223-16.643-29.12-16.643h-30.817c-15.512 0-26.73 4.742-33.65 14.223-3.953-9.48-13.686-14.223-29.196-14.223h-30.82c-13.9 0-25.343 5.55-34.334 16.643-4.248 5.248-7.08 12.408-8.504 21.486L69.466 289.197z" fill="#fff"/></svg>